<?xml version='1.0' encoding='iso-8859-1'?>
<svg version="1.1" xmlns="http://www.w3.org/2000/svg" viewBox="0 0 510.985 510.985" xmlns:xlink="http://www.w3.org/1999/xlink" enable-background="new 0 0 510.985 510.985">
  <g>
    <path d="m397.923,92.31l-22.113-9.683h-64.633c-6.822-4.286-29.164-16.901-55.665-16.901-26.514,0-48.857,12.621-55.685,16.901h-64.627l-22.145,9.683-113.055,113.464 74.431,74.514 54.682-54.682v219.654h252.772v-219.615l54.644,54.644 74.457-74.514-113.063-113.465zm-202.669,5.774c0.026,0.147 0.07,0.287 0.109,0.434 0.287,17.092 17.31,26.942 50.479,41.179 2.146,0.971 4.318,1.942 6.515,2.919l3.149,1.399 3.149-1.418c4.95-2.236 9.779-4.414 14.442-6.617 26.712-12.034 40.879-21.372 42.08-35.852 0.198-0.664 0.39-1.354 0.543-2.038h7.997c0,23.314-28.443,37.647-67.348,54.075l-1.048,.447-1.048-.441c-38.905-16.268-67.367-30.519-67.367-54.081h8.355v-0.006h-0.007zm105.512-3.769c-2.6,11.88-17.271,20.107-45.292,32.856-28.04-12.621-42.706-20.803-45.28-32.85 7.454-4.311 25.275-13.228 45.312-13.228 20.011,0 37.812,8.904 45.26,13.222zm-279.056,111.446l5.959-5.979 52.746,52.798-5.966,5.972-52.739-52.791zm64.136,41.39l-52.753-52.81 88.694-89.026 214.02,324.578h-191.326v-241.384l-58.635,58.642zm288.355-50.926v-97.535l14.895,6.521 88.803,89.135-52.817,52.772-50.881-50.893zm62.327,62.327l-6.01-6.004 52.817-52.766 5.947,5.972-52.754,52.798z"/>
  </g>
</svg>
