<?xml version='1.0' encoding='iso-8859-1'?>
<svg version="1.1" xmlns="http://www.w3.org/2000/svg" viewBox="0 0 510.985 510.985" xmlns:xlink="http://www.w3.org/1999/xlink" enable-background="new 0 0 510.985 510.985">
  <g>
    <path d="m398.952,92.955l-1.028-1.035-22.113-9.677h-65.885c-8.01-4.848-29.35-16.134-54.42-16.134s-46.423,11.286-54.433,16.134h-65.879l-22.138,9.677-113.056,113.471 74.438,74.508 45.069-45.063 9.613-9.613v211.97 7.684h252.772v-7.684-211.938l9.594,9.594 45.056,45.05 74.444-74.508-112.034-112.436zm90.329,112.423l-13.222,13.235-84.581-84.574v-26.814l97.803,98.153zm-216.504-69.641c9.536-4.509 18.242-9.083 25.339-14.269v308.041h-25.339v-293.772zm27.823-41.147c-0.505,1.929-1.322,3.769-2.485,5.544-5.768,8.846-19.75,16.237-42.642,26.648-22.867-10.296-36.829-17.635-42.603-26.52-1.175-1.808-1.993-3.679-2.504-5.646 7.55-4.35 25.255-13.145 45.146-13.145 19.852-0.001 37.532,8.763 45.088,13.119zm-181.1,12.627v26.82l-84.574,84.574-13.222-13.234 97.796-98.16zm-45.056,150.952l-15.08-15.1 60.143-60.143v30.174l-45.063,45.069zm79.631-160.564h24.221v331.904h-24.221v-331.904zm58.795,24.022c7.096,5.174 15.802,9.715 25.338,14.18v293.702h-25.338v-307.882zm119.82-24.022h24.221v331.904h-24.221v-331.904zm103.845,160.564l-45.056-45.05v-30.186l60.137,60.137-15.081,15.099z"/>
  </g>
</svg>
