<?xml version='1.0' encoding='iso-8859-1'?>
<svg version="1.1" xmlns="http://www.w3.org/2000/svg" viewBox="0 0 510.985 510.985" xmlns:xlink="http://www.w3.org/1999/xlink" enable-background="new 0 0 510.985 510.985">
  <g>
    <path d="m397.923,92.31l-22.113-9.683h-64.774c-6.828-4.286-29.165-16.901-55.672-16.901s-48.857,12.621-55.685,16.901h-64.474l-22.151,9.683-113.054,113.464 74.431,74.514 54.688-54.682v219.654h252.765v-219.615l54.644,54.644 74.457-74.514-113.062-113.465zm77.3,99.341l-52.785,52.791-5.436-5.429 52.804-52.81 5.417,5.448zm-174.457-97.266c-2.798,12.998-19.283,20.625-45.28,20.625-26.099,0-42.591-7.678-45.312-20.765 7.524-4.343 25.249-13.164 45.177-13.164 20.16,0.012 38.057,9.019 45.415,13.304zm-259.587,91.824l52.804,52.804-5.436,5.429-52.791-52.785 5.423-5.448zm-19.469,19.552l11.331-11.389 52.785,52.785-11.395,11.395-52.721-52.791zm122.777,197.624h222.036v7.684h-222.036v-7.684zm0,26.507v-14.972h222.036v14.972h-222.036zm222.036-241.345v211.005h-222.036v-211.043l-47.784,47.79-52.81-52.81 77.989-78.277 16.524-7.218h56.834c0.415,1.846 0.984,3.641 1.705,5.372h-52.14l-20.746,9.064-45.056,45.459 5.455,5.41 44.021-44.411 17.929-7.837h54.976c1.475,1.923 3.175,3.717 5.091,5.378h-55.225l-20.746,9.064-41.748,42.144 5.461,5.41 40.713-41.109 17.929-7.837h66.217c9.747,4.165 21.953,6.272 36.414,6.272 14.467,0 26.667-2.108 36.401-6.272h66.243l17.923,7.837 40.706,41.109 5.455-5.41-41.741-42.144-20.746-9.064h-55.237c1.916-1.667 3.609-3.462 5.091-5.378h54.982l17.936,7.837 44.015,44.411 5.455-5.41-45.05-45.459-20.746-9.064h-52.146c0.709-1.731 1.284-3.526 1.699-5.372h56.86l16.498,7.218 78.008,78.283-52.81,52.804-47.763-47.752zm70.012,70.005l-11.382-11.389 52.791-52.785 11.331,11.382-52.74,52.792z"/>
  </g>
</svg>
