<?xml version='1.0' encoding='iso-8859-1'?>
<svg version="1.1" xmlns="http://www.w3.org/2000/svg" viewBox="0 0 510.992 510.992" xmlns:xlink="http://www.w3.org/1999/xlink" enable-background="new 0 0 510.992 510.992">
  <g>
    <path d="m397.923,91.54l-22.113-9.683h-67.316c-8.859-5.174-29.311-15.362-53.13-15.362-23.825,0-44.283,10.188-53.142,15.362h-67.029l-22.145,9.683-113.048,113.471 74.438,74.514 54.682-54.682v219.653h252.772v-219.621l54.65,54.65 74.451-74.514-113.07-113.471zm-97.496,3.423c-3.615,12.181-19.839,19.29-44.941,19.29-25.185,0-41.441-7.16-44.979-19.417 7.71-4.407 25.217-12.979 44.852-12.979 19.839,0.006 37.493,8.744 45.068,13.106zm-278.723,110.035l8.757-8.789 52.785,52.778-8.802,8.802-52.74-52.791zm344.813-17.22v241.358h-185.315l192.999-277.836v-18.472l-29.414-20.433h-18.395l-181.911,261.854v-186.503l-55.806,55.806-52.791-52.792 85.992-86.312 16.524-7.224h56.841c2.057,9.204 7.876,17.048 16.882,22.566 10.635,6.521 25.224,9.824 43.364,9.824 18.134,0 32.722-3.302 43.357-9.824 9.006-5.519 14.825-13.362 16.888-22.566h56.86l16.498,7.224 86.005,86.312-52.798,52.798-55.78-55.78zm70.011,70.011l-8.795-8.795 52.785-52.785 8.763,8.789-52.753,52.791z"/>
  </g>
</svg>
