<?xml version="1.0"?>
<svg width="400" height="400" xmlns="http://www.w3.org/2000/svg" xmlns:svg="http://www.w3.org/2000/svg">
 <!-- Created with SVG-edit - http://svg-edit.googlecode.com/ -->
 <g>
  <title>Layer 1</title>
  <circle id="svg_1" r="189.095215" cy="200" cx="200" stroke-linecap="null" stroke-linejoin="null" stroke-dasharray="null" stroke-width="5" stroke="#0000ff" fill="#ffffff"/>
  <circle stroke="#ffffff" id="svg_4" r="108.5" cy="200.499992" cx="200.499993" stroke-linecap="null" stroke-linejoin="null" stroke-dasharray="null" stroke-width="0" fill="#0000ff"/>
  <path stroke="#ffffff" transform="rotate(-19.698240280151367 109.81675720214847,185.14459228515622) " id="svg_15" d="m92.816765,186.211136c3.776184,-17.200714 10.584511,-31.88147 16.376656,-46.45018c6.737717,9.349182 12.559021,29.918884 17.623337,44.244217c-4.516998,16.570999 -11.019485,31.662064 -16.876999,46.523041c-6.314697,-13.596603 -11.71479,-29.130707 -17.122993,-44.317078l0,0z" stroke-linecap="null" stroke-linejoin="null" stroke-dasharray="null" stroke-width="0" fill="#ffffff"/>
  <path id="svg_16" stroke="#ffffff" transform="rotate(-19.698240280151367 146.46713256835926,170.9156799316406) " d="m129.467133,171.982224c3.776199,-17.200714 10.584518,-31.88147 16.376663,-46.45018c6.737717,9.349182 12.559021,29.918884 17.623337,44.244217c-4.516998,16.570999 -11.019485,31.662064 -16.876999,46.523041c-6.314697,-13.596603 -11.714798,-29.130707 -17.123001,-44.317078l0,0z" stroke-linecap="null" stroke-linejoin="null" stroke-dasharray="null" stroke-width="0" fill="#ffffff"/>
  <path id="svg_17" stroke="#ffffff" transform="rotate(-19.698240280151367 141.46713256835926,271.9156799316406) " d="m124.467133,272.982208c3.776199,-17.200699 10.584518,-31.881454 16.376663,-46.450165c6.737717,9.349182 12.559021,29.918884 17.623337,44.244202c-4.516998,16.571014 -11.019485,31.662079 -16.876999,46.523071c-6.314697,-13.596619 -11.714798,-29.130737 -17.123001,-44.317108l0,0z" stroke-linecap="null" stroke-linejoin="null" stroke-dasharray="null" stroke-width="0" fill="#ffffff"/>
  <path id="svg_18" stroke="#ffffff" transform="rotate(-19.698240280151367 178.46713256835926,258.91567993164057) " d="m161.467133,259.982208c3.776215,-17.200699 10.584503,-31.881454 16.376678,-46.450165c6.737701,9.349182 12.559021,29.918884 17.623322,44.244202c-4.516998,16.571014 -11.019501,31.662079 -16.876984,46.523071c-6.314697,-13.596619 -11.714813,-29.130737 -17.123016,-44.317108l0,0z" stroke-linecap="null" stroke-linejoin="null" stroke-dasharray="null" stroke-width="0" fill="#ffffff"/>
  <path id="svg_19" stroke="#ffffff" transform="rotate(-19.698240280151367 184.46713256835943,157.91567993164062) " d="m167.467133,158.982224c3.776199,-17.200714 10.584518,-31.88147 16.376663,-46.45018c6.737717,9.349182 12.559021,29.918884 17.623337,44.244217c-4.516998,16.570999 -11.019485,31.662064 -16.876999,46.523041c-6.314697,-13.596603 -11.714798,-29.130707 -17.123001,-44.317078l0,0z" stroke-linecap="null" stroke-linejoin="null" stroke-dasharray="null" stroke-width="0" fill="#ffffff"/>
  <path id="svg_20" stroke="#ffffff" transform="rotate(-19.698240280151367 217.4671325683593,246.91567993164054) " d="m200.467133,247.982224c3.776184,-17.200714 10.584503,-31.88147 16.376678,-46.45018c6.737701,9.349182 12.559021,29.918884 17.623322,44.244217c-4.516998,16.570999 -11.019501,31.662064 -16.876984,46.523056c-6.314697,-13.596619 -11.714813,-29.130737 -17.123016,-44.317093l0,0z" stroke-linecap="null" stroke-linejoin="null" stroke-dasharray="null" stroke-width="0" fill="#ffffff"/>
  <path id="svg_21" stroke="#ffffff" transform="rotate(-19.698240280151367 222.46713256835932,143.91567993164065) " d="m205.467133,144.982224c3.776199,-17.200714 10.584518,-31.88147 16.376663,-46.45018c6.737717,9.349182 12.559036,29.918884 17.623337,44.244217c-4.516998,16.570999 -11.019501,31.662064 -16.876999,46.523041c-6.314697,-13.596603 -11.714798,-29.130707 -17.123001,-44.317078l0,0z" stroke-linecap="null" stroke-linejoin="null" stroke-dasharray="null" stroke-width="0" fill="#ffffff"/>
  <path id="svg_22" stroke="#ffffff" transform="rotate(-19.698240280151367 255.4671325683592,232.91567993164057) " d="m238.467133,233.982224c3.776199,-17.200714 10.584503,-31.88147 16.376678,-46.45018c6.737701,9.349182 12.559021,29.918884 17.623322,44.244217c-4.516998,16.570999 -11.019501,31.662064 -16.876984,46.523056c-6.314697,-13.596619 -11.714813,-29.130722 -17.123016,-44.317093l0,0z" stroke-linecap="null" stroke-linejoin="null" stroke-dasharray="null" stroke-width="0" fill="#ffffff"/>
  <path id="svg_23" stroke="#ffffff" transform="rotate(-19.698240280151367 259.4671325683593,129.91567993164065) " d="m242.467133,130.982224c3.776184,-17.200714 10.584503,-31.88147 16.376678,-46.45018c6.737701,9.349182 12.559021,29.918884 17.623322,44.244217c-4.516998,16.570999 -11.019501,31.662064 -16.876984,46.523041c-6.314697,-13.596603 -11.714813,-29.130707 -17.123016,-44.317078l0,0z" stroke-linecap="null" stroke-linejoin="null" stroke-dasharray="null" stroke-width="0" fill="#ffffff"/>
  <path id="svg_24" stroke="#ffffff" transform="rotate(-19.698240280151367 291.4671325683593,216.91567993164057) " d="m274.467133,217.982224c3.776184,-17.200714 10.584503,-31.88147 16.376678,-46.45018c6.737701,9.349182 12.559021,29.918884 17.623322,44.244217c-4.516998,16.570999 -11.019501,31.662064 -16.876984,46.523056c-6.314697,-13.596619 -11.714813,-29.130722 -17.123016,-44.317093l0,0z" stroke-linecap="null" stroke-linejoin="null" stroke-dasharray="null" stroke-width="0" fill="#ffffff"/>
  <circle stroke="#ff0000" fill-opacity="0" id="svg_2" r="147.699097" cy="200.000002" cx="199.999992" stroke-linecap="null" stroke-linejoin="null" stroke-dasharray="null" stroke-width="64" fill="#000000"/>
 </g>
</svg>