<?xml version='1.0' encoding='iso-8859-1'?>
<svg version="1.1" xmlns="http://www.w3.org/2000/svg" viewBox="0 0 510.985 510.985" xmlns:xlink="http://www.w3.org/1999/xlink" enable-background="new 0 0 510.985 510.985">
  <g>
    <path d="m397.923,92.31l-22.113-9.683h-64.633c-6.834-4.292-29.177-16.901-55.678-16.901s-48.837,12.615-55.678,16.901h-64.621l-22.145,9.683-113.055,113.464 74.431,74.514 54.688-54.682v219.654h252.765v-219.622l54.644,54.65 74.457-74.514-113.062-113.464zm-8.827,12.908l100.191,100.543-6.7,6.707-97.209-97.196-.249-.249-19.833-8.961h-53.653c2.37-3.519 3.647-6.49 4.235-8.067h56.726l16.492,7.223zm-88.336-10.909c-2.414,5.02-11.376,18.574-38.094,20.657l-1.935,10.379h-11.139l-1.935-10.437c-26.207-2.255-35.041-15.63-37.449-20.612 7.467-4.318 25.268-13.215 45.273-13.215 20.036,0.006 37.837,8.91 45.279,13.228zm-178.877,10.909l16.524-7.23h56.713c0.588,1.59 1.865,4.548 4.235,8.067h-53.66l-19.826,8.961-97.458,97.464-6.7-6.713 100.172-100.549zm314.652,153.334l-67.808-67.814 24.796-45.88-19.328-19.213h-57.914c0,0-15.017,12.762-38.714,18.402v60.756h-44.149v-60.756c-23.684-5.634-38.701-18.402-38.701-18.402h-57.914l-19.341,19.213 24.796,45.874-67.827,67.821-43.312-43.364 96.953-96.953 18.44-8.335h55.723c7.224,8.655 20.835,18.702 45.574,20.439v60.82h15.374v-60.82c24.738-1.737 38.337-11.778 45.567-20.439h55.723l18.434,8.335 96.953,96.947-43.325,43.369z"/>
  </g>
</svg>
