<?xml version='1.0' encoding='iso-8859-1'?>
<svg version="1.1" xmlns="http://www.w3.org/2000/svg" viewBox="0 0 510.985 510.985" xmlns:xlink="http://www.w3.org/1999/xlink" enable-background="new 0 0 510.985 510.985">
  <g>
    <path d="m397.923,92.303l-22.113-9.683h-64.64c-6.834-4.292-29.177-16.901-55.672-16.901-26.501,0-48.85,12.615-55.685,16.901h-64.613l-22.145,9.683-113.055,113.471 74.438,74.514 54.682-54.682v219.66h252.765v-219.628l54.65,54.65 74.451-74.514-113.063-113.471zm-97.157,2.006c-2.427,5.02-11.376,18.574-38.1,20.663l-1.929,10.373h-11.139l-1.929-10.43c-26.226-2.261-35.054-15.649-37.455-20.625 7.435-4.324 25.147-13.203 45.28-13.203 20.023,1.42109e-14 37.818,8.904 45.272,13.222zm-279.062,111.452l8.776-8.808 52.753,52.81-8.789,8.789-52.74-52.791zm122.783,224.137v-11.012h222.036v11.012h-222.036zm222.036-241.357v218.823h-222.036v-218.855l-53.104,53.104-52.766-52.829 83.271-83.572 16.524-7.23h56.707c0.364,0.977 0.984,2.478 1.967,4.311h-52.274l-20.746,9.07-45.05,45.452 5.455,5.41 44.021-44.411 17.923-7.837h55.895c1.475,1.763 3.226,3.583 5.276,5.378h-56.336l-20.746,9.07-41.748,42.15 5.461,5.404 40.713-41.102 17.923-7.837h66.249c7.307,3.647 16.696,6.451 28.705,7.301v60.82h15.368v-60.82c12.015-0.85 21.41-3.647 28.711-7.301h66.243l17.923,7.837 40.719,41.102 5.455-5.404-41.748-42.15-20.746-9.07h-56.322c2.044-1.795 3.794-3.609 5.27-5.378h55.889l17.929,7.837 44.021,44.411 5.455-5.41-45.056-45.452-20.746-9.07h-52.267c0.977-1.833 1.603-3.328 1.967-4.311h56.726l16.498,7.224 83.278,83.584-52.778,52.829-53.073-53.078zm70.012,70.011l-8.783-8.783 52.759-52.817 8.77,8.808-52.746,52.792z"/>
  </g>
</svg>
