<?xml version='1.0' encoding='iso-8859-1'?>
<svg version="1.1" xmlns="http://www.w3.org/2000/svg" viewBox="0 0 510.985 510.985" xmlns:xlink="http://www.w3.org/1999/xlink" enable-background="new 0 0 510.985 510.985">
  <g>
    <g>
      <path d="m397.923,92.31l-22.113-9.683h-64.633c-6.822-4.286-29.164-16.901-55.678-16.901-26.501,0-48.85,12.621-55.672,16.901h-64.627l-22.145,9.683-113.055,113.464 74.431,74.514 54.682-54.682v219.654h252.772v-219.615l54.644,54.644 74.457-74.514-113.063-113.465zm-31.406,96.237v241.345h-222.03v-241.383l-57.984,57.984-52.766-52.804 88.139-88.471 16.524-7.218h52.881c1.935,11.018 7.793,23.065 17.003,28.717 6.26,3.832 13.912,8.086 22.841,9.683l6.336-22.841c-15.553-2.804-25.211-9.517-27.261-19.226 7.454-4.324 25.262-13.228 45.292-13.228 20.05,0 37.858,8.923 45.299,13.228-2.05,9.702-11.708,16.415-27.267,19.226l6.336,22.841c8.917-1.597 16.562-5.851 22.828-9.683 9.198-5.64 15.074-17.699 17.009-28.717h52.893l16.498,7.218 88.145,88.471-52.772,52.817-57.944-57.959z"/>
      <path d="m268.529,114.192c-4.235,0.537-8.08,0.824-13.037,0.824-5.059,0-8.987-0.294-13.298-0.85l-3.245,15.055c1.648,0.23 3.264,0.428 4.893,0.594v61.344h23.039v-61.318c1.635-0.16 3.245-0.358 4.912-0.581l-3.264-15.068zm-9.332,69.29h-7.678v-53.155c1.277,0.038 2.58,0.064 3.973,0.064 1.284,0 2.517-0.019 3.705-0.057 0-0.001 0,53.148 0,53.148z"/>
    </g>
  </g>
</svg>
