<?xml version='1.0' encoding='iso-8859-1'?>
<svg version="1.1" xmlns="http://www.w3.org/2000/svg" viewBox="0 0 510.985 510.985" xmlns:xlink="http://www.w3.org/1999/xlink" enable-background="new 0 0 510.985 510.985">
  <g>
    <path d="m397.923,92.3l-2.21-.971-3.826-1.673-16.07-7.039h-64.78c-6.828-4.28-29.165-16.901-55.672-16.901s-48.857,12.621-55.685,16.901h-64.48l-16.102,7.039-3.807,1.673-2.236,.984-113.055,113.458 74.431,74.514 40.847-40.834 13.841-13.841v214.416 5.244h252.765v-5.244-214.384l13.829,13.822 40.834,40.828 74.438-74.521-113.062-113.471zm-282.645,125.415l-20.088,20.094-52.772-52.829 72.86-73.148c1.42109e-14,0 1.42109e-14,105.883 1.42109e-14,105.883zm218.97,212.187h-48.02v-303.685c0.013-0.006 0.032-0.013 0.051-0.019l-7.352-13.841c-6.553,1.737-14.423,2.657-23.441,2.657-9,0-16.882-0.92-23.422-2.651l-7.352,13.841c0.013,0 0.038,0.006 0.051,0.013v303.679h-48.02v-331.911h18.504c2.057,9.198 7.869,17.041 16.882,22.566 0.626,0.383 1.277,0.76 1.935,1.111l7.211-13.56c-6.093-3.462-9.907-8.144-11.095-13.848 7.518-4.356 25.249-13.171 45.178-13.171 20.152,0 38.036,9.006 45.414,13.305-1.214,5.64-5.02,10.277-11.05,13.714l7.198,13.554c0.658-0.358 1.297-0.728 1.929-1.105 9.006-5.525 14.825-13.369 16.882-22.566h18.517v331.911 0.006zm61.465-318.05l72.375,72.637-52.829,52.785-19.552-19.558v-105.864h0.006z"/>
  </g>
</svg>
